<?xml version="1.0" encoding="UTF-8"?>
<svg xmlns="http://www.w3.org/2000/svg" xmlns:xlink="http://www.w3.org/1999/xlink" width="29.7638" height="37.4173" viewBox="0 0 29.7638 37.4173">
<defs>
<g>
<g id="glyph-0-0">
<path d="M 1.078125 -1.28125 C 0.8125 -0.984375 0.8125 -0.78125 0.8125 -0.625 C 0.8125 -0.265625 1.109375 0 1.546875 0 L 7.796875 0 C 8.15625 0 8.390625 -0.265625 8.390625 -0.609375 C 8.390625 -0.96875 8.15625 -1.21875 7.796875 -1.21875 L 2.6875 -1.21875 L 2.6875 -1.25 L 5.5625 -4.4375 C 7 -6.015625 8.21875 -7.359375 8.21875 -9.015625 C 8.21875 -10.984375 6.78125 -12.171875 4.796875 -12.171875 C 3.21875 -12.171875 2.21875 -11.5 1.609375 -10.984375 C 1.390625 -10.8125 1.265625 -10.59375 1.265625 -10.34375 C 1.265625 -9.9375 1.5625 -9.71875 1.84375 -9.71875 C 2.078125 -9.71875 2.25 -9.796875 2.5 -10.03125 C 2.9375 -10.4375 3.671875 -10.953125 4.75 -10.953125 C 5.96875 -10.953125 6.8125 -10.15625 6.8125 -8.953125 C 6.8125 -7.703125 6 -6.75 4.640625 -5.234375 Z M 1.078125 -1.28125 "/>
</g>
</g>
<clipPath id="clip-0">
<path clip-rule="nonzero" d="M 0.113281 6 L 29.417969 6 L 29.417969 36.84375 L 0.113281 36.84375 Z M 0.113281 6 "/>
</clipPath>
</defs>
<path fill-rule="nonzero" fill="rgb(92.829895%, 7.904053%, 25.538635%)" fill-opacity="1" d="M 27.578125 30.011719 L 18.585938 34.429688 C 14.765625 36.308594 10.945312 34.429688 10.945312 34.429688 L 1.953125 30.011719 C 1.328125 29.703125 1.140625 28.929688 1.429688 28.34375 L 14.621094 1.507812 C 14.6875 1.371094 14.84375 1.375 14.90625 1.507812 L 28.101562 28.34375 C 28.390625 28.929688 28.207031 29.703125 27.578125 30.011719 "/>
<g clip-path="url(#clip-0)">
<path fill="none" stroke-width="0.926" stroke-linecap="butt" stroke-linejoin="miter" stroke="rgb(13.729858%, 12.159729%, 12.548828%)" stroke-opacity="1" stroke-miterlimit="8.857" d="M 0.00143665 -0.0015066 C -0.272292 -0.303005 -0.272292 -0.505326 -0.272292 -0.656075 C -0.272292 -1.028981 0.0331733 -1.298742 0.473519 -1.298742 L 6.820851 -1.298742 C 7.193756 -1.298742 7.427814 -1.028981 7.427814 -0.675911 C 7.427814 -0.318873 7.193756 -0.068947 6.820851 -0.068947 L 1.639842 -0.068947 L 1.639842 -0.0332433 L 4.559614 3.207863 C 6.011566 4.810564 7.241361 6.179207 7.241361 7.849349 C 7.241361 9.860659 5.789409 11.058718 3.782066 11.058718 C 2.179365 11.058718 1.147923 10.384314 0.54096 9.860659 C 0.318803 9.674207 0.18789 9.456017 0.18789 9.202124 C 0.18789 8.797481 0.489388 8.575325 0.775018 8.575325 C 1.013043 8.575325 1.183627 8.646732 1.433553 8.88079 C 1.889768 9.301301 2.635579 9.828923 3.730494 9.828923 C 4.964256 9.828923 5.825113 9.015671 5.825113 7.801744 C 5.825113 6.516409 4.995993 5.556375 3.611481 4.017148 Z M 0.00143665 -0.0015066 " transform="matrix(0.984666, 0, 0, -0.984666, 11.213429, 28.584454)"/>
</g>
<g fill="rgb(100%, 100%, 100%)" fill-opacity="1">
<use xlink:href="#glyph-0-0" x="10.13266" y="29.864323"/>
</g>
</svg>
